<svg xmlns="http://www.w3.org/2000/svg" viewBox="0 0 512 512"><defs><linearGradient id="top" x1="90" y1="120" x2="420" y2="400" gradientUnits="userSpaceOnUse"><stop offset="0" stop-color="#8b8172"/><stop offset=".5" stop-color="#514b43"/><stop offset="1" stop-color="#24231f"/></linearGradient><linearGradient id="side" x1="90" y1="320" x2="420" y2="475" gradientUnits="userSpaceOnUse"><stop offset="0" stop-color="#302820"/><stop offset="1" stop-color="#11100d"/></linearGradient><filter id="sh" x="-30%" y="-30%" width="160%" height="170%"><feDropShadow dx="0" dy="14" stdDeviation="12" flood-color="#000" flood-opacity=".75"/></filter><linearGradient id="b" x1="120" y1="80" x2="330" y2="315" gradientUnits="userSpaceOnUse"><stop offset="0" stop-color="#c0dcf2"/><stop offset=".45" stop-color="#496d8d"/><stop offset="1" stop-color="#101c28"/></linearGradient><radialGradient id="o" cx="50%" cy="45%" r="60%"><stop offset="0" stop-color="#f4fcff"/><stop offset=".4" stop-color="#66b9ff"/><stop offset="1" stop-color="#11375f"/></radialGradient></defs><g filter="url(#sh)"><polygon points="255,120 430,210 430,330 255,438 82,330 82,210" fill="url(#top)"/><polygon points="82,330 255,438 430,330 430,366 255,476 82,366" fill="url(#side)"/><path d="M120 224 255 152l136 72M120 315l136 83 138-84" fill="none" stroke="#d4c5aa" stroke-width="7" opacity=".3"/></g><g filter="url(#sh)" stroke-linecap="round" stroke-linejoin="round"><g transform="translate(128 132) scale(1)"><ellipse cx="60" cy="185" rx="46" ry="15" fill="#07090a" opacity=".45"/><path d="M42 93 24 151M79 93l20 151M34 145h54" stroke="#6eaee4" stroke-width="13"/><path d="M31 60h58c15 0 28 13 28 28v46c0 18-15 33-33 33H36c-18 0-33-15-33-33V88c0-15 13-28 28-28z" fill="url(#b)" stroke="#9bcfff" stroke-width="8"/><path d="M43 32c0-18 13-32 29-32s29 14 29 32v29H43z" fill="#101a24" stroke="#9bcfff" stroke-width="7"/><circle cx="72" cy="44" r="19" fill="url(#o)" stroke="#e4f5ff" stroke-width="5"/><path d="M32 96h64M39 125h48" stroke="#d8ecff" stroke-width="8"/><path d="M108 96 139 73M37 49 13 26" stroke="#6eaee4" stroke-width="7"/></g><g transform="translate(216 190) scale(.8)"><ellipse cx="60" cy="185" rx="46" ry="15" fill="#07090a" opacity=".45"/><path d="M42 93 24 151M79 93l20 151M34 145h54" stroke="#6eaee4" stroke-width="13"/><path d="M31 60h58c15 0 28 13 28 28v46c0 18-15 33-33 33H36c-18 0-33-15-33-33V88c0-15 13-28 28-28z" fill="url(#b)" stroke="#9bcfff" stroke-width="8"/><path d="M43 32c0-18 13-32 29-32s29 14 29 32v29H43z" fill="#101a24" stroke="#9bcfff" stroke-width="7"/><circle cx="72" cy="44" r="19" fill="url(#o)" stroke="#e4f5ff" stroke-width="5"/><path d="M32 96h64M39 125h48" stroke="#d8ecff" stroke-width="8"/><path d="M108 96 139 73M37 49 13 26" stroke="#6eaee4" stroke-width="7"/></g><g transform="translate(286 132) scale(.88)"><ellipse cx="60" cy="185" rx="46" ry="15" fill="#07090a" opacity=".45"/><path d="M42 93 24 151M79 93l20 151M34 145h54" stroke="#6eaee4" stroke-width="13"/><path d="M31 60h58c15 0 28 13 28 28v46c0 18-15 33-33 33H36c-18 0-33-15-33-33V88c0-15 13-28 28-28z" fill="url(#b)" stroke="#9bcfff" stroke-width="8"/><path d="M43 32c0-18 13-32 29-32s29 14 29 32v29H43z" fill="#101a24" stroke="#9bcfff" stroke-width="7"/><circle cx="72" cy="44" r="19" fill="url(#o)" stroke="#e4f5ff" stroke-width="5"/><path d="M32 96h64M39 125h48" stroke="#d8ecff" stroke-width="8"/><path d="M108 96 139 73M37 49 13 26" stroke="#6eaee4" stroke-width="7"/></g></g></svg>